# xmcd CD database file
#
# Track frame offsets:
#	150
#	23130
#	41937
#	66940
#	87680
#	101757
#	125202
#	147797
#	159227
#	175705
#	193620
#
# Disc length: 3010 seconds
#
# Revision: 2
# Processed by: cddbd v1.5.2PL0 Copyright (c) Steve Scherf et al.
# Submitted via: CDex 1.70beta3
#
DISCID=9d0bc00b
DTITLE=綾戸智絵 - TIME
DYEAR=2004
DGENRE=Jazz
TTITLE0=Trav'lin' Light
TTITLE1=What A Diffecrence A Day Made
TTITLE2=Lover Man
TTITLE3=A Time For Love
TTITLE4=Gree Baby,　Ain't I Good To You
TTITLE5=Fools Rush In
TTITLE6=Solitude
TTITLE7=Don't Be Cruel
TTITLE8=Someday We'll Be Together
TTITLE9=Georgia On My Mind
TTITLE10=Blowin' In The Wind
EXTD=YEAR: 2004
EXTT0=
EXTT1=
EXTT2=
EXTT3=
EXTT4=
EXTT5=
EXTT6=
EXTT7=
EXTT8=
EXTT9=
EXTT10=
PLAYORDER=
